<svg xmlns="http://www.w3.org/2000/svg" viewBox="0 0 900 500" preserveAspectRatio="xMidYMid slice" width="900" height="500">
  <path d="M-10,30 C45,20 95,40 150,30 C205,20 255,42 310,32 C365,22 415,38 470,30 C525,22 575,36 630,30 C685,24 735,34 790,30 C845,26 880,33 910,30" stroke="white" stroke-width="1.0" fill="none" opacity="0.09"/>
  <path d="M-10,80 C50,65 110,95 170,80 C230,65 290,95 350,80 C410,65 470,95 530,80 C590,65 650,95 710,80 C770,65 830,95 910,80" stroke="white" stroke-width="1.5" fill="none" opacity="0.13"/>
  <path d="M-10,140 C55,120 115,160 175,140 C235,120 295,165 355,143 C415,121 475,158 535,140 C595,122 655,153 715,140 C775,127 835,148 910,140" stroke="white" stroke-width="1.2" fill="none" opacity="0.10"/>
  <path d="M-10,200 C60,175 120,225 185,202 C250,179 310,218 370,200 C430,182 490,213 555,198 C620,183 680,206 740,200 C800,194 840,208 910,200" stroke="white" stroke-width="1.0" fill="none" opacity="0.08"/>
  <path d="M-10,260 C65,235 125,285 195,262 C265,239 325,272 385,258 C445,244 505,268 570,256 C635,244 695,262 755,258 C815,254 855,265 910,260" stroke="white" stroke-width="0.8" fill="none" opacity="0.07"/>
  <path d="M-10,320 C70,293 130,347 205,322 C280,297 340,328 400,316 C460,304 520,323 590,316 C660,309 720,320 785,316 C850,312 875,320 910,318" stroke="white" stroke-width="0.6" fill="none" opacity="0.06"/>
  <path d="M-10,380 C75,352 135,408 215,382 C295,356 355,384 415,374 C475,364 535,378 610,372 C685,366 745,378 815,374 C885,370 900,376 910,374" stroke="white" stroke-width="0.5" fill="none" opacity="0.05"/>
  <path d="M-10,440 C80,410 140,470 225,442 C310,414 370,440 430,432 C490,424 550,436 630,428 C710,420 775,432 845,428 C910,424 910,432 910,430" stroke="white" stroke-width="0.4" fill="none" opacity="0.04"/>
  <path d="M-10,490 C80,468 145,512 230,490 C315,468 380,490 440,482 C500,474 560,486 645,478 C730,470 800,482 875,478 C910,476 910,484 910,482" stroke="white" stroke-width="0.3" fill="none" opacity="0.03"/>
</svg>
